<?xml version="1.0" encoding="utf-8"?>
<!-- Generator: Adobe Illustrator 27.7.0, SVG Export Plug-In . SVG Version: 6.00 Build 0)  -->
<svg version="1.1" id="Layer_1" xmlns="http://www.w3.org/2000/svg" xmlns:xlink="http://www.w3.org/1999/xlink" x="0px" y="0px"
	 viewBox="0 0 500 500" style="enable-background:new 0 0 500 500;" xml:space="preserve">
<style type="text/css">
	.st0{fill:#6C6C6C;}
	.st1{fill:#FFFFFF;}
</style>
<rect y="0" class="st0" width="500" height="500"/>
<g>
	<path class="st1" d="M97,340.4c-6.3,0-9-2.8-9-9V168.7c0-6.3,2.8-9,9-9h116.5c6.3,0,9,2.8,9,9V198c0,6.3-2.8,9-9,9h-69.3v19.3h48.9
		c6.3,0,9,2.8,9,9v26.9c0,6.3-2.8,9-9,9h-48.9v21.6h69.3c6.3,0,9,2.8,9,9v29.4c0,6.3-2.8,9-9,9L97,340.4L97,340.4z"/>
</g>
<g>
	<path class="st1" d="M341.4,340.4h-84.6c-8,0-11.6-3.5-11.6-11.5V166.2c0-4.5,1.3-7.3,3.5-9.3l32.4-27.4c1.8-1.5,4.5-2.3,8-2.3
		h84.6c44.2,0,64.3,17.3,64.3,53.7v78.3c0,18.3-5.3,31.6-15.8,40.7L389.6,327C379.3,335.8,363.2,340.4,341.4,340.4z M435.5,259.3
		V181c0-34.9-19.6-51.2-61.8-51.2h-84.6c-6.3,0-9,2.8-9,9v162.7c0,6.3,2.8,9,9,9h84.6C415.9,310.5,435.5,294.2,435.5,259.3z
		 M307.5,152.4h60.7c34.1,0,40.2,15.5,40.2,34.9v66.5c0,19.3-5.5,34.1-40.2,34.1h-60.7V152.4z M310,154.9v130.5h58.2
		c32.1,0,37.6-13.3,37.6-31.6v-66.5c0-18.3-6-32.4-37.6-32.4L310,154.9L310,154.9z M367,177.7c8,0,11.8,3.8,11.8,12v61
		c0,8.5-3.8,12.3-11.8,12.3h-29.9v-85.4L367,177.7L367,177.7z M339.6,208.3v52.2h4.3v-43.4C343.9,212.6,342.6,209.6,339.6,208.3z"/>
</g>
</svg>
